PathFileType	4	(X/Y/Z)	./resultDataOpenSim/trcMotMarkerGrf/sub10/qtm-02-04.trc
DataRate	CameraRate	NumFrames	NumMarkers	Units	OrigDataRate	OrigDataStartFrame	OrigNumFrames
250.000000	250.000000	12	24	m	250.000000	123	490
Frame#	Time	L.Toe.Tip			R.Toe.Tip			L.Ankle.Lat			R.Ankle.Lat			L.Ankle.Med			R.Ankle.Med			L.Heel			R.Heel			L.Knee.Lat			R.Knee.Lat			L.Knee.Med			R.Knee.Med			L.Thigh.Upper			R.Thigh.Upper			L.ASIS			R.ASIS			V.Sacral			L.Acromium			R.Acromium			C7			L.Elbow			R.Elbow			L.Wrist.Lat			R.Wrist.Lat
		X1	Y1	Z1	X2	Y2	Z2	X3	Y3	Z3	X4	Y4	Z4	X5	Y5	Z5	X6	Y6	Z6	X7	Y7	Z7	X8	Y8	Z8	X9	Y9	Z9	X10	Y10	Z10	X11	Y11	Z11	X12	Y12	Z12	X13	Y13	Z13	X14	Y14	Z14	X15	Y15	Z15	X16	Y16	Z16	X17	Y17	Z17	X18	Y18	Z18	X19	Y19	Z19	X20	Y20	Z20	X21	Y21	Z21	X22	Y22	Z22	X23	Y23	Z23	X24	Y24	Z24

123	0.488	-0.47913714	0.057528652	-0.14117495	-0.75065682	0.040349496	0.020540627	-0.61252537	0.084643049	-0.13774525	-0.88804743	0.053945101	0.062909608	-0.58251546	0.10658425	-0.058626461	-0.87657399	0.083188916	-0.021144428	-0.66593698	0.05551247	-0.076058942	-0.94267237	0.029312923	0.017500519	-0.5664869	0.47257409	-0.16675097	-0.79605389	0.4469426	0.11266472	-0.5311412	0.45124902	-0.052380412	-0.80586309	0.45148027	-0.019266704	-0.70275775	0.82815566	-0.22004485	-0.74278809	0.86153582	0.16153333	-0.65506747	0.93925591	-0.15184983	-0.66017435	0.95131758	0.090709149	-0.85604064	0.96114081	-0.038857441	-0.70883885	1.4164533	-0.18618659	-0.73813641	1.4102653	0.13805373	-0.80885275	1.442186	-0.031737655	-0.82957399	1.0941898	-0.25034524	-0.79820941	1.0631773	0.2003043	-0.70914838	0.8805622	-0.26590362	-0.63573401	0.87855225	0.22330948
124	0.492	-0.46039152	0.058427216	-0.14039421	-0.75073427	0.040377129	0.020562867	-0.59442115	0.082308613	-0.13742148	-0.88828715	0.054074061	0.062876742	-0.56581144	0.10492931	-0.058595243	-0.87654035	0.083117495	-0.021271035	-0.64735686	0.052149877	-0.075985145	-0.94259652	0.029473505	0.017026604	-0.55957437	0.47143893	-0.16642048	-0.79385305	0.446472	0.11231031	-0.52436563	0.45089704	-0.051899511	-0.80336488	0.45117576	-0.019691	-0.69651554	0.82744885	-0.22036691	-0.73885479	0.86084135	0.16127015	-0.6489445	0.93836187	-0.15166732	-0.65542369	0.95017823	0.091055372	-0.85048401	0.96022959	-0.040001367	-0.70377325	1.4155485	-0.1862163	-0.73291311	1.4095212	0.13805893	-0.8035055	1.4413097	-0.031798379	-0.82572987	1.0937235	-0.25111061	-0.79122632	1.061904	0.20075677	-0.70570852	0.87978747	-0.26693874	-0.6264024	0.87914679	0.22221342
125	0.496	-0.44174009	0.059475882	-0.13949453	-0.75081542	0.040358023	0.020572469	-0.57628196	0.080227865	-0.13709842	-0.88839384	0.054172191	0.062806214	-0.54902105	0.10362686	-0.058472085	-0.87651166	0.083017087	-0.021410175	-0.62888295	0.049137405	-0.075971714	-0.94252202	0.029637545	0.016544774	-0.5527479	0.47038759	-0.1663126	-0.79160253	0.44598141	0.11193593	-0.51772495	0.4504412	-0.051465861	-0.8007924	0.45085081	-0.020115375	-0.69014661	0.82668106	-0.22066835	-0.73488445	0.86010861	0.16098848	-0.64280895	0.9373992	-0.15152425	-0.65076918	0.94900572	0.09135923	-0.84507657	0.95917588	-0.041144958	-0.69868949	1.4145736	-0.18624047	-0.72764964	1.4087039	0.13806051	-0.79826388	1.4403782	-0.032174147	-0.82146719	1.0931913	-0.25132873	-0.78426597	1.0605662	0.20118083	-0.70223826	0.87896547	-0.26796228	-0.61703093	0.8796994	0.22105326
126	0.5	-0.42318785	0.060713733	-0.13847857	-0.75088315	0.040314516	0.020576978	-0.55822927	0.078463242	-0.13684385	-0.88824089	0.054238898	0.062649698	-0.53221255	0.10267776	-0.058266128	-0.87643799	0.082918992	-0.021558755	-0.6104966	0.046472698	-0.076009254	-0.94253167	0.029737877	0.016365694	-0.54597128	0.46947407	-0.16651479	-0.78930107	0.44547042	0.11154165	-0.51123685	0.44988608	-0.051098043	-0.7981355	0.45051688	-0.020530051	-0.683674	0.82585612	-0.22094836	-0.73085575	0.85927618	0.16070757	-0.63665274	0.93638314	-0.15142566	-0.64612795	0.94781917	0.09162478	-0.83998694	0.95805128	-0.042435628	-0.6935514	1.4135314	-0.18626122	-0.72235306	1.4078094	0.13805617	-0.79318903	1.4393971	-0.033026341	-0.81677649	1.0925768	-0.25093035	-0.77732532	1.0591667	0.20158361	-0.69873182	0.87809703	-0.26897781	-0.60756341	0.8801753	0.21979261
127	0.504	-0.40476457	0.06218265	-0.13733002	-0.75093689	0.040261194	0.020569267	-0.54036302	0.077027815	-0.13668414	-0.88796123	0.054291861	0.062453416	-0.51548916	0.10204317	-0.058012216	-0.87629875	0.082841565	-0.021718737	-0.59225001	0.044131856	-0.076111491	-0.94263619	0.029762817	0.016550257	-0.53915085	0.46859402	-0.16697362	-0.78694761	0.44493865	0.11112761	-0.50490347	0.44921953	-0.050806443	-0.79535572	0.45018199	-0.020925091	-0.67714083	0.82496976	-0.22122329	-0.72675375	0.8583037	0.16045262	-0.63041691	0.93532655	-0.15134837	-0.64144288	0.94662881	0.09183975	-0.83513314	0.95690522	-0.043896601	-0.6883638	1.4124264	-0.18629981	-0.71703157	1.4068405	0.13804922	-0.78820515	1.4383654	-0.034139663	-0.81201336	1.0918764	-0.25040146	-0.77040984	1.0577098	0.20196948	-0.69518922	0.87718089	-0.26998938	-0.5980124	0.88056272	0.21842279
128	0.508	-0.3865352	0.063906941	-0.13604438	-0.75099613	0.04018463	0.020532183	-0.5226674	0.075860588	-0.13656813	-0.88774999	0.05434805	0.062280493	-0.49893072	0.10167659	-0.057743442	-0.87612012	0.082781068	-0.02188946	-0.57416154	0.042076788	-0.076291604	-0.94274625	0.029782259	0.016780272	-0.53224497	0.46757085	-0.16749564	-0.78454139	0.44438586	0.11069406	-0.49869396	0.44842397	-0.05057849	-0.79237911	0.4498548	-0.021279014	-0.67057967	0.82401806	-0.221514	-0.72261275	0.85725134	0.16024246	-0.62400979	0.93422367	-0.15125754	-0.63669945	0.94543805	0.092004247	-0.83018812	0.95572866	-0.045385154	-0.6831375	1.4112578	-0.18636414	-0.71168119	1.4058041	0.13804138	-0.78314076	1.4372757	-0.035032074	-0.8075526	1.0911084	-0.25027241	-0.763516	1.0561974	0.20233502	-0.69161361	0.87621745	-0.27099914	-0.58851384	0.88090133	0.217012
129	0.512	-0.36856439	0.065885793	-0.13465054	-0.75107587	0.040053839	0.020457171	-0.50509054	0.0748757	-0.13642872	-0.88765162	0.054412796	0.062141769	-0.48258455	0.10154762	-0.057489732	-0.87592313	0.082729505	-0.022071203	-0.55624696	0.040261035	-0.076567645	-0.94279588	0.029850793	0.016807147	-0.52529697	0.46631927	-0.16791157	-0.78208182	0.44381189	0.11024131	-0.4925328	0.44749728	-0.05036522	-0.78917832	0.44953785	-0.021586946	-0.66399184	0.82300548	-0.22182746	-0.71847183	0.85623372	0.16004198	-0.61742881	0.93305731	-0.15114793	-0.6319153	0.94424956	0.092140211	-0.82493045	0.95448697	-0.046793548	-0.67788566	1.4100239	-0.18643986	-0.7062906	1.4047023	0.13802876	-0.77790626	1.4361246	-0.035456353	-0.80344883	1.0902948	-0.25062814	-0.75661874	1.0546299	0.20267785	-0.68800296	0.87520883	-0.27200821	-0.57921872	0.88125327	0.21566065
130	0.516	-0.35089741	0.068094497	-0.13319404	-0.75114112	0.039871758	0.020379878	-0.4876646	0.074042817	-0.13627592	-0.88761172	0.054484395	0.062019829	-0.46646483	0.10163422	-0.057277242	-0.87569388	0.082686179	-0.02226609	-0.53855691	0.038649437	-0.076957509	-0.94279914	0.029960706	0.01668072	-0.51835548	0.46489494	-0.16819263	-0.77956824	0.44321653	0.10976965	-0.48633603	0.44645391	-0.050113617	-0.7858589	0.44919935	-0.021893479	-0.657357	0.82194404	-0.22215416	-0.71425718	0.85528602	0.15969832	-0.61080643	0.93182095	-0.15104775	-0.62710846	0.94306579	0.092267364	-0.81935758	0.95315814	-0.048113625	-0.67262071	1.4087291	-0.18651528	-0.70085853	1.4035272	0.13800382	-0.77254656	1.4349174	-0.03554353	-0.7995048	1.0894418	-0.25122381	-0.74968863	1.0530091	0.20300392	-0.68435284	0.87415561	-0.27301248	-0.57014438	0.8816464	0.21439584
131	0.52	-0.33357053	0.070486544	-0.13171811	-0.75113542	0.039694802	0.020353038	-0.47049089	0.073393312	-0.1361896	-0.88757642	0.054560365	0.061899547	-0.45055296	0.10189491	-0.057124014	-0.87542912	0.082650281	-0.022473031	-0.52107877	0.037198061	-0.077483531	-0.94278837	0.030090867	0.016531032	-0.51139923	0.46339224	-0.16839845	-0.77699982	0.44259952	0.1092793	-0.48009775	0.44530597	-0.049841164	-0.78257761	0.44879175	-0.022246159	-0.65067397	0.82083884	-0.22247762	-0.70978289	0.85435684	0.1589691	-0.60427019	0.93053095	-0.15097496	-0.62228976	0.9418811	0.09238777	-0.81353437	0.95174044	-0.049336808	-0.66735154	1.4073821	-0.18659446	-0.69539461	1.4022731	0.13796206	-0.76713913	1.4336597	-0.035516971	-0.79551463	1.088548	-0.25180232	-0.74271897	1.051338	0.2033214	-0.68066657	0.87305416	-0.27401222	-0.56120219	0.88206878	0.21315886
132	0.524	-0.31661283	0.073011784	-0.13025941	-0.75105705	0.03957228	0.020376932	-0.45364169	0.072953906	-0.13623358	-0.88751923	0.054639789	0.061773435	-0.4348387	0.10226432	-0.057041193	-0.87516688	0.08261506	-0.022682341	-0.50370071	0.035804287	-0.078200862	-0.94277699	0.030236474	0.016407936	-0.50438497	0.46187174	-0.16858028	-0.77437565	0.44196056	0.10877043	-0.47390286	0.44405656	-0.049634542	-0.77938405	0.44829694	-0.022664885	-0.64398359	0.81968172	-0.22278323	-0.70496532	0.85340155	0.15777833	-0.59783108	0.92921145	-0.15091631	-0.61750001	0.94067976	0.092491566	-0.80751372	0.95024565	-0.050431321	-0.66209009	1.4059897	-0.18668336	-0.6899052	1.4009466	0.13790868	-0.76172136	1.4323538	-0.035497565	-0.79139107	1.0876129	-0.25224195	-0.73572543	1.0496175	0.20363186	-0.67695884	0.87189862	-0.27502232	-0.55231556	0.88249078	0.21187144
133	0.528	-0.30004203	0.075649452	-0.12884499	-0.7509558	0.039500006	0.020407195	-0.43712391	0.072713938	-0.13642622	-0.88743518	0.0547222	0.061637843	-0.41937847	0.10267897	-0.05704074	-0.87493714	0.082574843	-0.022885082	-0.48634731	0.03435024	-0.07916672	-0.94276753	0.030402876	0.016271515	-0.49728966	0.46035952	-0.16875734	-0.77169482	0.44129934	0.10824322	-0.46781271	0.44271497	-0.049541626	-0.77616515	0.44772486	-0.023191655	-0.63733488	0.81846182	-0.22306586	-0.70006403	0.8524095	0.15653434	-0.59143398	0.92787277	-0.15085218	-0.61283537	0.93943867	0.092566697	-0.80137134	0.94869188	-0.051433021	-0.65683449	1.4045533	-0.1867802	-0.68438725	1.3995573	0.13785351	-0.75630375	1.4310014	-0.035507661	-0.78714965	1.0866295	-0.25254409	-0.7287266	1.0478469	0.20393046	-0.67324681	0.87068717	-0.27605449	-0.54344185	0.88286587	0.21048054
134	0.532	-0.2838729	0.07842109	-0.12749183	-0.750869	0.039450072	0.020417013	-0.42092864	0.072641865	-0.13676342	-0.88732758	0.054805155	0.061486502	-0.40428682	0.10310403	-0.057138084	-0.87471398	0.082531513	-0.023086967	-0.46913565	0.032847983	-0.08035299	-0.94276109	0.030602969	0.016018023	-0.4900915	0.45886634	-0.16893996	-0.76895642	0.44061557	0.10769787	-0.46179264	0.44130034	-0.049523133	-0.77272736	0.4470929	-0.023863064	-0.63073166	0.8171727	-0.22332699	-0.69553289	0.85137901	0.15589436	-0.58502863	0.92651336	-0.150773	-0.60836394	0.93814133	0.092608629	-0.79521768	0.94709828	-0.052468666	-0.65153219	1.4030695	-0.18687713	-0.67883186	1.3981093	0.13779759	-0.75091173	1.4296067	-0.035521626	-0.78283908	1.0855867	-0.25276225	-0.72173513	1.0460291	0.20421296	-0.66953175	0.86942697	-0.27709708	-0.53453784	0.88315025	0.2089911
